<svg width="165" height="32" viewBox="0 0 151 32" fill="none" xmlns="http://www.w3.org/2000/svg">
<path d="M21.9411 20.6863C19.353 18.0981 19.353 13.9019 21.9411 11.3137L31.3137 1.94113C33.9019 -0.647042 38.0981 -0.647042 40.6863 1.94113L50.0589 11.3137C52.647 13.9019 52.647 18.0981 50.0589 20.6863L40.6863 30.0589C38.0981 32.647 33.9019 32.647 31.3137 30.0589L21.9411 20.6863Z" fill="url(#paint0_linear_271_133)"/>
<path d="M1.94113 20.6863C-0.647042 18.0981 -0.647042 13.9019 1.94113 11.3137L11.3137 1.94113C13.9019 -0.647042 18.0981 -0.647042 20.6863 1.94113L30.0589 11.3137C32.647 13.9019 32.647 18.0981 30.0589 20.6863L20.6863 30.0589C18.0981 32.647 13.9019 32.647 11.3137 30.0589L1.94113 20.6863Z" fill="url(#paint1_linear_271_133)"/>
<path d="M26 7.25483L30.0589 11.3137C32.647 13.9019 32.647 18.0981 30.0589 20.6863L26 24.7452L21.9411 20.6863C19.353 18.0981 19.353 13.9019 21.9411 11.3137L26 7.25483Z" fill="url(#paint2_linear_271_133)" fill-opacity="0.2"/>
<path d="M63.6988 22H66.622L68.453 15.3666L70.284 22H73.2072L76.3071 10.7569H73.6088L71.6653 18.6271L69.497 10.7569H67.409L65.2407 18.6271L63.2972 10.7569H60.5989L63.6988 22Z" fill="#2C3149"/>
<path d="M82.0097 10.7569H77.7534V22H80.3232V18.4665H82.0097C84.2262 18.4665 85.9448 16.7479 85.9448 14.6117C85.9448 12.4755 84.2262 10.7569 82.0097 10.7569ZM82.0097 16.0572H80.3232V13.1662H82.0097C82.7967 13.1662 83.3749 13.7926 83.3749 14.6117C83.3749 15.4308 82.7967 16.0572 82.0097 16.0572Z" fill="#2C3149"/>
<path d="M98.7112 13.2304V10.7569H91.885V22H94.4549V17.8722H98.6309V15.3987H94.4549V13.2304H98.7112Z" fill="#2C3149"/>
<path d="M105.658 13.9692V18.354C105.658 19.4944 105.048 20.0084 104.165 20.0084C103.394 20.0084 102.767 19.5426 102.767 18.5468V13.9692H100.358V18.9001C100.358 21.0684 101.739 22.2249 103.362 22.2249C104.422 22.2249 105.225 21.8394 105.658 21.2451V22H108.068V13.9692H105.658Z" fill="#2C3149"/>
<path d="M110.156 22H112.565V10.2751H110.156V22Z" fill="#2C3149"/>
<path d="M114.649 22H117.058V10.2751H114.649V22Z" fill="#2C3149"/>
<path d="M127.816 10.7569H123.993V22H124.844V17.7116H127.816C129.84 17.7116 131.317 16.2178 131.317 14.2423C131.317 12.2506 129.84 10.7569 127.816 10.7569ZM127.816 16.9085H124.844V11.56H127.816C129.358 11.56 130.466 12.6843 130.466 14.2423C130.466 15.7842 129.358 16.9085 127.816 16.9085Z" fill="#2C3149"/>
<path d="M140.005 13.9692V15.7842C139.33 14.5796 138.093 13.7926 136.551 13.7926C134.271 13.7926 132.391 15.6075 132.391 17.9846C132.391 20.3617 134.271 22.1767 136.551 22.1767C138.093 22.1767 139.33 21.3897 140.005 20.185V22H140.824V13.9692H140.005ZM136.616 21.4057C134.704 21.4057 133.21 19.8959 133.21 17.9846C133.21 16.0733 134.704 14.5635 136.616 14.5635C138.527 14.5635 140.005 16.0733 140.005 17.9846C140.005 19.8959 138.527 21.4057 136.616 21.4057Z" fill="#2C3149"/>
<path d="M149.489 13.9692L146.695 21.1166L143.45 13.9692H142.583L146.277 22.1446L146.1 22.5782C145.602 23.7507 144.783 24.5538 143.707 24.4574V25.2123C145.088 25.3247 146.277 24.2807 146.887 22.7388L150.357 13.9692H149.489Z" fill="#2C3149"/>
<defs>
<linearGradient id="paint0_linear_271_133" x1="2106.52" y1="-5541.76" x2="5434.53" y2="-5541.76" gradientUnits="userSpaceOnUse">
<stop stop-color="#8AE6E6"/>
<stop offset="1" stop-color="#6BC7C7"/>
</linearGradient>
<linearGradient id="paint1_linear_271_133" x1="9.83067" y1="25.9504" x2="26.7275" y2="-1.507" gradientUnits="userSpaceOnUse">
<stop stop-color="#517DC6"/>
<stop offset="1" stop-color="#5894F5"/>
</linearGradient>
<linearGradient id="paint2_linear_271_133" x1="19.7075" y1="16" x2="54.1427" y2="16" gradientUnits="userSpaceOnUse">
<stop stop-color="#8AE6E6"/>
<stop offset="1" stop-color="#6BC7C7"/>
</linearGradient>
</defs>
</svg>
